<svg width="250" height="250" viewBox="0 0 250 250" fill="none" xmlns="http://www.w3.org/2000/svg">
<rect width="250" height="250" fill="white"/>
<path d="M155.438 52.6792C152.156 49.251 148.649 46.7925 144.905 45.3039C141.161 43.8266 137.496 43.0823 133.91 43.0823H91.1915V50.8072H103.596V199.193H91.1915V206.918H133.323V199.193H121.031V141.036H133.898C137.327 141.036 140.924 139.942 144.668 137.755C148.491 135.567 152.043 132.296 155.314 127.921C158.595 123.478 161.246 117.94 163.275 111.298C165.384 104.667 166.433 96.9423 166.433 88.1235C166.433 79.3047 165.418 72.3693 163.388 66.5953C161.358 60.7424 158.708 56.1075 155.427 52.668L155.438 52.6792ZM145.379 112.595C143.664 119.305 141.398 124.414 138.59 127.921C135.782 131.428 132.782 133.187 129.579 133.187H121.031V50.8072H130.515C133.718 50.8072 136.639 52.0139 139.289 54.4385C141.939 56.7841 144.048 60.6748 145.604 66.1442C147.239 71.6024 148.063 78.8988 148.063 88.022C148.063 97.6979 147.16 105.885 145.367 112.595H145.379Z" fill="black"/>
</svg>
