<svg width="338" height="387" viewBox="0 0 338 387" fill="none" xmlns="http://www.w3.org/2000/svg">
<path d="M334.746 368.219C332.667 366.14 330.148 365.111 327.17 365.111C324.192 365.111 321.743 366.15 319.595 368.219C317.516 370.298 316.487 372.857 316.487 375.895C316.487 378.933 317.526 381.421 319.595 383.57C321.733 385.709 324.262 386.788 327.17 386.788C330.079 386.788 332.667 385.719 334.746 383.57C336.885 381.431 337.964 378.873 337.964 375.895C337.964 372.916 336.895 370.298 334.746 368.219Z" fill="black"/>
<path d="M273.862 275.914V282.66H283.926V348.511C283.926 353.768 283.446 358.575 282.477 362.922C281.507 367.28 280.058 370.808 278.119 373.496C276.25 376.125 274.002 377.434 271.373 377.434C269.504 377.434 267.845 376.844 266.396 375.675C264.947 374.426 263.808 372.147 262.978 368.829C262.218 365.511 261.839 360.674 261.839 354.307V275.914H235.604V282.66H246.288V355.976C246.288 364.481 247.257 370.948 249.196 375.365C251.135 379.722 253.693 382.691 256.872 384.28C260.12 385.869 263.608 386.668 267.345 386.668C271.083 386.668 273.982 385.869 276.47 384.28C278.959 382.621 280.928 380.652 282.377 378.373C283.826 376.095 284.695 373.986 284.965 372.047L285.795 384.39H308.921V377.544H299.487V275.914H273.862Z" fill="black"/>
<path d="M215.166 246.151H208.01C207.8 249.889 207.321 253.727 206.561 257.664C205.802 261.602 204.832 265.2 203.653 268.448C202.474 271.696 201.134 274.155 199.605 275.814H186.433V282.66H199.605V366.66C199.605 372.057 200.465 376.165 202.194 379.003C203.923 381.841 206.131 383.74 208.83 384.71C211.598 385.749 214.467 386.269 217.435 386.269C220.403 386.269 222.792 385.819 225.01 384.919C227.219 384.09 228.988 383.051 230.297 381.811L226.36 376.414C225.81 377.034 225.01 377.664 223.971 378.283C223.002 378.833 221.862 379.113 220.553 379.113C219.304 379.113 218.094 378.633 216.925 377.664C215.746 376.694 215.166 374.755 215.166 371.857V282.66H230.517V275.814H215.166V246.151Z" fill="black"/>
<path d="M171.822 333.47C169.053 329.462 165.735 325.344 161.868 321.127C157.1 316.08 153.462 311.623 150.974 307.745C148.485 303.807 147.236 299.55 147.236 294.992C147.236 291.195 148.096 288.046 149.825 285.558C151.624 283.069 154.182 281.82 157.5 281.82C159.639 281.82 161.508 282.34 163.097 283.379C164.756 284.349 166.135 285.838 167.244 287.837C168.424 289.845 169.323 292.334 169.943 295.302C170.632 298.27 171.122 301.728 171.392 305.676H178.338V275.804H172.221C172.221 276.913 172.082 277.702 171.802 278.192C171.522 278.682 171.072 278.922 170.452 278.922C169.763 278.922 168.893 278.572 167.864 277.882C166.895 277.193 165.585 276.503 163.926 275.804C162.267 275.114 160.019 274.764 157.19 274.764C153.592 274.764 150.174 275.664 146.926 277.463C143.678 279.192 141.05 281.82 139.041 285.348C137.032 288.876 136.033 293.333 136.033 298.73C136.033 306.745 137.762 313.521 141.22 319.058C144.678 324.525 148.825 329.882 153.662 335.129C157.26 338.926 160.159 342.524 162.377 345.912C164.656 349.23 166.315 352.518 167.354 355.767C168.464 358.945 169.013 362.263 169.013 365.721C169.013 367.999 168.663 370.218 167.974 372.357C167.284 374.496 166.145 376.294 164.556 377.754C163.037 379.133 160.998 379.832 158.44 379.832C155.881 379.832 153.632 379.243 151.704 378.073C149.835 376.894 148.246 375.205 146.936 372.996C145.627 370.788 144.548 368.049 143.718 364.801C142.959 361.553 142.409 357.815 142.059 353.598H135.113V384.4H141.02C141.02 383.43 141.16 382.671 141.44 382.121C141.789 381.501 142.369 381.192 143.198 381.192C144.098 381.192 145.027 381.641 145.997 382.541C147.036 383.44 148.485 384.34 150.354 385.239C152.293 386.209 155.092 386.688 158.759 386.688C163.327 386.688 167.224 385.619 170.482 383.47C173.731 381.262 176.219 378.143 177.948 374.136C179.747 370.128 180.646 365.351 180.646 359.824C180.646 354.847 179.887 350.21 178.368 345.922C176.849 341.635 174.67 337.487 171.832 333.48L171.822 333.47Z" fill="black"/>
<path d="M149.856 22.3851C142.202 14.3885 134.021 8.65416 125.288 5.18197C116.555 1.73609 108.006 0 99.6412 0H0V18.0185H28.9349V364.132H0V382.151H98.2734V364.132H69.6015V228.48H99.6149C107.611 228.48 116.003 225.929 124.736 220.826C133.653 215.723 141.939 208.094 149.567 197.888C157.222 187.524 163.403 174.609 168.138 159.116C173.057 143.649 175.503 125.63 175.503 105.06C175.503 84.4898 173.136 68.3126 168.401 54.8447C163.666 41.1927 157.485 30.3816 149.83 22.3588L149.856 22.3851ZM126.393 162.141C122.395 177.792 117.107 189.708 110.558 197.888C104.008 206.069 97.0107 210.172 89.5403 210.172H69.6015V18.0185H91.7236C99.194 18.0185 106.007 20.8331 112.188 26.4886C118.37 31.9599 123.289 41.0349 126.919 53.7926C130.733 66.5239 132.653 83.5429 132.653 104.823C132.653 127.392 130.549 146.489 126.367 162.141H126.393Z" fill="black"/>
</svg>
