<svg width="1100" height="227" viewBox="0 0 1100 227" fill="none" xmlns="http://www.w3.org/2000/svg">
<path d="M1096.78 139.47C1094.7 137.39 1092.18 136.36 1089.2 136.36C1086.22 136.36 1083.77 137.4 1081.62 139.47C1079.54 141.55 1078.51 144.11 1078.51 147.15C1078.51 150.19 1079.55 152.68 1081.62 154.83C1083.76 156.97 1086.29 158.05 1089.2 158.05C1092.11 158.05 1094.7 156.98 1096.78 154.83C1098.92 152.69 1100 150.13 1100 147.15C1100 144.17 1098.93 141.55 1096.78 139.47Z" fill="black"/>
<path d="M1035.86 47.11V53.86H1045.93V119.75C1045.93 125.01 1045.45 129.82 1044.48 134.17C1043.51 138.53 1042.06 142.06 1040.12 144.75C1038.25 147.38 1036 148.69 1033.37 148.69C1031.5 148.69 1029.84 148.1 1028.39 146.93C1026.94 145.68 1025.8 143.4 1024.97 140.08C1024.21 136.76 1023.83 131.92 1023.83 125.55V47.11H997.58V53.86H1008.27V127.22C1008.27 135.73 1009.24 142.2 1011.18 146.62C1013.12 150.98 1015.68 153.95 1018.86 155.54C1022.11 157.13 1025.6 157.93 1029.34 157.93C1033.08 157.93 1035.98 157.13 1038.47 155.54C1040.96 153.88 1042.93 151.91 1044.38 149.63C1045.83 147.35 1046.7 145.24 1046.97 143.3L1047.8 155.65H1070.94V148.8H1061.5V47.11H1035.86Z" fill="black"/>
<path d="M977.13 17.33H969.97C969.76 21.07 969.28 24.91 968.52 28.85C967.76 32.79 966.79 36.39 965.61 39.64C964.43 42.89 963.09 45.35 961.56 47.01H948.38V53.86H961.56V137.91C961.56 143.31 962.42 147.42 964.15 150.26C965.88 153.1 968.09 155 970.79 155.97C973.56 157.01 976.43 157.53 979.4 157.53C982.37 157.53 984.76 157.08 986.98 156.18C989.19 155.35 990.96 154.31 992.27 153.07L988.33 147.67C987.78 148.29 986.98 148.92 985.94 149.54C984.97 150.09 983.83 150.37 982.52 150.37C981.27 150.37 980.06 149.89 978.89 148.92C977.71 147.95 977.13 146.01 977.13 143.11V53.86H992.49V47.01H977.13V17.33Z" fill="black"/>
<path d="M933.76 104.7C930.99 100.69 927.67 96.57 923.8 92.35C919.03 87.3 915.39 82.84 912.9 78.96C910.41 75.02 909.16 70.76 909.16 66.2C909.16 62.4 910.02 59.25 911.75 56.76C913.55 54.27 916.11 53.02 919.43 53.02C921.57 53.02 923.44 53.54 925.03 54.58C926.69 55.55 928.07 57.04 929.18 59.04C930.36 61.05 931.26 63.54 931.88 66.51C932.57 69.48 933.06 72.94 933.33 76.89H940.28V47H934.16C934.16 48.11 934.02 48.9 933.74 49.39C933.46 49.88 933.01 50.12 932.39 50.12C931.7 50.12 930.83 49.77 929.8 49.08C928.83 48.39 927.52 47.7 925.86 47C924.2 46.31 921.95 45.96 919.12 45.96C915.52 45.96 912.1 46.86 908.85 48.66C905.6 50.39 902.97 53.02 900.96 56.55C898.95 60.08 897.95 64.54 897.95 69.94C897.95 77.96 899.68 84.74 903.14 90.28C906.6 95.75 910.75 101.11 915.59 106.36C919.19 110.16 922.09 113.76 924.31 117.15C926.59 120.47 928.25 123.76 929.29 127.01C930.4 130.19 930.95 133.51 930.95 136.97C930.95 139.25 930.6 141.47 929.91 143.61C929.22 145.75 928.08 147.55 926.49 149.01C924.97 150.39 922.93 151.09 920.37 151.09C917.81 151.09 915.56 150.5 913.63 149.33C911.76 148.15 910.17 146.46 908.86 144.25C907.55 142.04 906.47 139.3 905.64 136.05C904.88 132.8 904.33 129.06 903.98 124.84H897.03V155.66H902.94C902.94 154.69 903.08 153.93 903.36 153.38C903.71 152.76 904.29 152.45 905.12 152.45C906.02 152.45 906.95 152.9 907.92 153.8C908.96 154.7 910.41 155.6 912.28 156.5C914.22 157.47 917.02 157.95 920.69 157.95C925.26 157.95 929.16 156.88 932.42 154.73C935.67 152.52 938.16 149.4 939.89 145.39C941.69 141.38 942.59 136.6 942.59 131.07C942.59 126.09 941.83 121.45 940.31 117.16C938.79 112.87 936.61 108.72 933.77 104.71L933.76 104.7Z" fill="black"/>
<path d="M532.83 60.5C530.75 56.07 528.09 52.54 524.84 49.92C521.66 47.29 517.89 45.98 513.53 45.98C509.79 45.98 506.23 47.12 502.84 49.4C499.45 51.61 496.41 55 493.71 59.57C491.08 64.14 488.97 69.88 487.38 76.8C485.86 83.72 485.1 91.81 485.1 101.08C485.1 108.83 485.65 116.13 486.76 122.98C487.87 129.83 489.56 135.88 491.84 141.14C494.12 146.33 497.06 150.41 500.66 153.38C504.33 156.35 508.65 157.84 513.63 157.84C519.16 157.84 523.97 156.32 528.05 153.27C532.2 150.16 534.93 146.66 536.25 142.79L530.23 139.37C529.33 141.72 527.67 144.14 525.25 146.63C522.9 149.12 519.54 150.37 515.18 150.37C512.34 150.37 509.99 149.09 508.12 146.53C506.25 143.9 504.8 140.23 503.76 135.53C502.72 130.83 502 125.29 501.58 118.93C501.23 113.43 501.03 107.5 500.98 101.19H538.83C538.9 99.81 538.93 98.42 538.93 97.04V92.68C538.93 86.73 538.41 80.99 537.37 75.45C536.4 69.85 534.88 64.87 532.8 60.51L532.83 60.5ZM501 94.33C501.11 85.71 501.62 78.48 502.53 72.64C503.57 66 505.02 61.05 506.89 57.8C508.83 54.55 511.04 52.92 513.53 52.92C516.02 52.92 518.1 54.58 519.55 57.9C521.07 61.15 522.14 65.86 522.77 72.01C523.46 78.1 523.81 85.53 523.81 94.32H501V94.33Z" fill="black"/>
<path d="M468.7 72.64C468.7 65.17 467.21 58.91 464.24 53.86C461.27 48.74 456.7 46.18 450.54 46.18C446.8 46.18 443.48 46.98 440.58 48.57C437.74 50.16 435.46 52.1 433.73 54.38C432 56.59 430.93 58.7 430.51 60.71C430.3 59.53 429.65 57.8 428.54 55.52C427.5 53.17 425.81 51.02 423.46 49.09C421.11 47.15 417.99 46.18 414.12 46.18C410.25 46.18 407.1 46.98 404.47 48.57C401.91 50.09 399.97 51.89 398.66 53.97C397.35 55.98 396.58 57.6 396.38 58.85V47.02H371.16V53.87H381.12V148.82H371.16V155.67H404.99V148.82H396.69V80.95C396.76 76.66 397.17 72.65 397.94 68.91C398.77 65.17 400.02 62.16 401.68 59.88C403.41 57.53 405.66 56.35 408.43 56.35C412.51 56.35 414.97 58.77 415.8 63.61C416.63 68.38 417.05 75.2 417.05 84.05V148.8H408.75V155.65H441.02V148.8H432.41V80.1C432.55 76.09 433.03 72.28 433.86 68.69C434.76 65.02 436.07 62.05 437.8 59.77C439.6 57.49 441.92 56.35 444.75 56.35C447.38 56.35 449.28 57.46 450.46 59.67C451.71 61.81 452.47 64.96 452.74 69.11C453.02 73.19 453.16 78.17 453.16 84.05V148.8H444.75V155.65H478.48V148.8H468.73V72.63L468.7 72.64Z" fill="black"/>
<path d="M352.57 58.53C349.87 54.17 346.79 50.99 343.33 48.98C339.94 46.97 336.45 45.97 332.85 45.97C329.25 45.97 325.72 46.97 322.27 48.98C318.88 50.99 315.8 54.17 313.03 58.53C310.33 62.82 308.15 68.46 306.49 75.44C304.9 82.43 304.1 90.94 304.1 100.97C304.1 110.17 304.86 118.3 306.38 125.36C307.9 132.42 310.01 138.37 312.71 143.21C315.41 148.05 318.49 151.72 321.95 154.21C325.41 156.7 329.04 157.95 332.85 157.95C336.66 157.95 340.29 156.7 343.75 154.21C347.28 151.72 350.36 148.05 352.99 143.21C355.69 138.37 357.8 132.42 359.32 125.36C360.91 118.3 361.71 110.18 361.71 100.97C361.71 90.94 360.88 82.43 359.22 75.44C357.56 68.45 355.35 62.81 352.58 58.53H352.57ZM341.99 138.53C339.64 146.55 336.59 150.57 332.86 150.57C329.13 150.57 326.05 146.56 323.62 138.53C321.2 130.51 319.99 117.98 319.99 100.97C319.99 83.96 321.2 71.91 323.62 64.44C326.04 56.97 329.12 53.23 332.86 53.23C336.6 53.23 339.64 56.97 341.99 64.44C344.41 71.91 345.62 84.09 345.62 100.97C345.62 117.85 344.41 130.51 341.99 138.53Z" fill="black"/>
<path d="M285.59 77.93C285.59 69.01 284.59 62.26 282.58 57.69C280.64 53.12 278.15 50.05 275.11 48.45C272.14 46.79 268.99 45.96 265.67 45.96C262.35 45.96 259.41 46.65 256.85 48.04C254.29 49.42 252.25 51.08 250.73 53.02C249.21 54.96 248.24 56.69 247.82 58.21V47H221.98V53.85H232.67V148.8H221.98V155.65H256.85V148.8H248.24V77.61C248.24 75.05 248.55 72.49 249.17 69.93C249.79 67.37 250.62 65.05 251.66 62.98C252.77 60.84 254.05 59.14 255.5 57.9C257.02 56.65 258.65 56.03 260.38 56.03C263.7 56.03 266.12 57.86 267.64 61.53C269.23 65.2 270.03 71.22 270.03 79.59V148.8H261.21V155.65H296.18V148.8H285.6V77.93H285.59Z" fill="black"/>
<path d="M206.32 60.5C204.24 56.07 201.58 52.54 198.33 49.92C195.15 47.29 191.38 45.98 187.02 45.98C183.28 45.98 179.72 47.12 176.33 49.4C172.94 51.61 169.9 55 167.2 59.57C164.57 64.14 162.46 69.88 160.87 76.8C159.35 83.72 158.59 91.81 158.59 101.08C158.59 108.83 159.14 116.13 160.25 122.98C161.36 129.83 163.05 135.88 165.33 141.14C167.61 146.33 170.55 150.41 174.15 153.38C177.82 156.35 182.14 157.84 187.12 157.84C192.65 157.84 197.46 156.32 201.54 153.27C205.69 150.16 208.42 146.66 209.74 142.79L203.72 139.37C202.82 141.72 201.16 144.14 198.74 146.63C196.39 149.12 193.03 150.37 188.67 150.37C185.83 150.37 183.48 149.09 181.61 146.53C179.74 143.9 178.29 140.23 177.25 135.53C176.21 130.83 175.49 125.29 175.07 118.93C174.72 113.43 174.52 107.5 174.47 101.19H212.32C212.39 99.81 212.42 98.42 212.42 97.04V92.68C212.42 86.73 211.9 80.99 210.86 75.45C209.89 69.85 208.37 64.87 206.29 60.51L206.32 60.5ZM174.49 94.33C174.6 85.71 175.11 78.48 176.02 72.64C177.06 66 178.51 61.05 180.38 57.8C182.32 54.55 184.53 52.92 187.02 52.92C189.51 52.92 191.59 54.58 193.04 57.9C194.56 61.15 195.63 65.86 196.26 72.01C196.95 78.1 197.3 85.53 197.3 94.32H174.49V94.33Z" fill="black"/>
<path d="M140 79.28C140 70.29 139 63.4 136.99 58.63C135.05 53.79 132.53 50.47 129.41 48.67C126.3 46.8 122.98 45.87 119.45 45.87C115.92 45.87 112.71 46.73 110.01 48.46C107.31 50.12 105.2 51.95 103.68 53.96C102.16 55.97 101.33 57.45 101.19 58.42V0H75.04V6.85H85.62V148.81H75.04V155.66H109.49V148.81H101.19V77.94C101.26 74.27 101.92 70.81 103.16 67.56C104.41 64.31 106.03 61.68 108.04 59.67C110.05 57.66 112.19 56.66 114.47 56.66C117.93 56.66 120.45 58.49 122.05 62.16C123.64 65.83 124.44 72.19 124.44 81.25V148.8H116.24V155.65H150.69V148.8H140V79.27V79.28Z" fill="black"/>
<path d="M56.97 18.89C54.06 15.85 50.95 13.67 47.63 12.35C44.31 11.04 41.06 10.38 37.88 10.38H0V17.23H11V148.81H0V155.66H37.36V148.81H26.46V97.24H37.87C40.91 97.24 44.1 96.27 47.42 94.33C50.81 92.39 53.96 89.49 56.86 85.61C59.77 81.67 62.12 76.76 63.92 70.87C65.79 64.99 66.72 58.14 66.72 50.32C66.72 42.5 65.82 36.35 64.02 31.23C62.22 26.04 59.87 21.93 56.96 18.88L56.97 18.89ZM48.05 72.02C46.53 77.97 44.52 82.5 42.03 85.61C39.54 88.72 36.88 90.28 34.04 90.28H26.46V17.23H34.87C37.71 17.23 40.3 18.3 42.65 20.45C45 22.53 46.87 25.98 48.25 30.83C49.7 35.67 50.43 42.14 50.43 50.23C50.43 58.81 49.63 66.07 48.04 72.02H48.05Z" fill="black"/>
<path d="M832.05 77.93C832.05 69.01 831.05 62.26 829.04 57.69C827.1 53.12 824.61 50.05 821.57 48.45C818.6 46.79 815.45 45.96 812.13 45.96C808.81 45.96 805.87 46.65 803.31 48.04C800.75 49.42 798.71 51.08 797.19 53.02C795.67 54.96 794.7 56.69 794.28 58.21V47H768.44V53.85H779.13V134.62C773.89 143.4 762.67 150.98 750.6 154.04C752.32 152.08 753.92 149.78 755.37 147.11C758.07 142.27 760.18 136.32 761.7 129.26C763.29 122.2 764.09 114.08 764.09 104.87C764.09 94.84 763.26 86.33 761.6 79.34C759.94 72.35 757.73 66.71 754.96 62.43C752.26 58.07 749.18 54.89 745.72 52.88C742.33 50.87 738.84 49.87 735.24 49.87C731.64 49.87 728.11 50.87 724.66 52.88C721.27 54.89 718.19 58.07 715.42 62.43C712.72 66.72 710.54 72.36 708.88 79.34C707.29 86.33 706.49 94.84 706.49 104.87C706.49 113.97 707.24 122.01 708.72 129.01C700.95 123.96 693.18 120.57 679.31 120.36C672.79 120.26 666.27 121.68 660.73 123.46L661.81 121.46L666.48 113.33C666.48 113.33 670.17 106.87 673.4 101.22C676.74 95.46 678.88 91.71 679.8 89.98C680.49 88.71 683.6 83.24 689.14 73.55C694.05 65.03 697.44 59.13 699.3 55.83H687.19C686.41 56.61 685.74 57.44 685.16 58.33C679.74 66.86 674.55 73.78 669.59 79.08C660.6 90.03 652.35 98.74 644.86 105.2C642.32 107.28 640.54 108.31 639.5 108.31C638.81 108.31 638.46 107.91 638.46 107.1C638.46 105.02 642.26 97.01 649.87 83.06C652.64 77.87 656.27 71.7 660.77 64.55C663.17 60.67 664.96 57.77 666.15 55.83H655C653.36 57.19 651.87 58.7 650.57 60.4C645.96 66.51 638.81 78.62 629.12 96.72L626.35 102.08C624.51 105.54 622.66 109.63 620.82 114.36C618.98 118.97 618.05 122.43 618.05 124.74C618.05 126.82 618.86 127.85 620.47 127.85C624.04 127.85 630.16 123.76 638.8 115.57L642.6 112.11C645.14 109.8 648.77 106.29 653.5 101.56C658.23 96.72 662.73 91.82 666.99 86.86C667.34 86.51 667.62 86.34 667.85 86.34C668.08 86.34 668.2 86.51 668.2 86.86L660.94 101.04C654.6 113.38 649.53 123 645.72 129.92C636.99 137.12 629.32 144.22 622.68 151.25V148.79H612.1V77.92C612.1 69 611.1 62.25 609.09 57.68C607.15 53.11 604.66 50.04 601.62 48.44C598.65 46.78 595.5 45.95 592.18 45.95C588.86 45.95 585.92 46.64 583.36 48.03C580.8 49.41 578.76 51.07 577.24 53.01C575.72 54.95 574.75 56.68 574.33 58.2V46.99H548.49V53.84H559.18V148.79H548.49V155.64H583.36V148.79H574.75V77.6C574.75 75.04 575.06 72.48 575.68 69.92C576.3 67.36 577.13 65.04 578.17 62.97C579.28 60.83 580.56 59.13 582.01 57.89C583.53 56.64 585.16 56.02 586.89 56.02C590.21 56.02 592.63 57.85 594.15 61.52C595.74 65.19 596.54 71.21 596.54 79.58V148.79H587.72V155.64H618.66C612.64 162.43 607.59 169.13 603.53 175.76C595.11 189.6 590.9 202.39 590.9 214.15C590.9 222.11 592.28 226.08 595.05 226.08C596.78 226.08 599.09 224.52 601.97 221.41C604.85 218.41 606.93 215.99 608.2 214.15C609.47 212.42 610.51 210.92 611.31 209.65C619.73 197.31 635.06 170.68 657.31 129.75L657.47 129.45C669.27 125.39 686.56 123.77 706.48 135.5C707.59 136.15 709.15 136.87 711.13 137.93C712.27 141.33 713.59 144.39 715.09 147.1C717.79 151.94 720.87 155.61 724.33 158.1C727.79 160.59 731.42 161.84 735.23 161.84C737.73 161.84 740.16 161.29 742.51 160.21C751.05 161.37 759.91 159.29 768.44 156.61C770.03 156.11 775.23 153.57 779.13 152.23V155.65H803.31V148.8H795.44L794.7 148.16V77.62C794.7 75.06 795.01 72.5 795.63 69.94C796.25 67.38 797.08 65.06 798.12 62.99C799.23 60.85 800.51 59.15 801.96 57.91C803.48 56.66 805.11 56.04 806.84 56.04C810.16 56.04 812.58 57.87 814.1 61.54C815.69 65.21 816.49 71.23 816.49 79.6V148.81H807.67V155.66H842.64V148.81H832.06V77.94L832.05 77.93ZM603.88 202.4L602.67 204.13C601.86 205.28 600.88 206.38 599.73 207.42C598.58 208.57 597.71 209.15 597.14 209.15C596.45 209.15 596.1 208.17 596.1 206.21C596.1 202.52 597.2 197.91 599.39 192.37C601.58 186.95 603.31 183.09 604.58 180.78C605.85 178.59 606.94 176.8 607.87 175.42C615.02 163.89 626.09 151.55 641.08 138.41C627.71 163.2 615.31 184.53 603.9 202.4H603.88ZM726 68.35C728.42 60.88 731.5 57.14 735.24 57.14C738.98 57.14 742.02 60.88 744.37 68.35C746.79 75.82 748 88 748 104.88C748 121.76 746.79 134.42 744.37 142.44C742.02 150.46 738.97 154.48 735.24 154.48C731.51 154.48 728.43 150.47 726 142.44C723.58 134.42 722.37 121.89 722.37 104.88C722.37 87.87 723.58 75.82 726 68.35Z" fill="black"/>
</svg>
